<svg width="23" height="26" viewBox="0 0 23 26" fill="none" xmlns="http://www.w3.org/2000/svg">
<path d="M22.1667 3.5V9.33333H21V10.5H19.8333V11.6667H18.6667V12.8333H17.5V14H16.3333V15.1667H15.1667V16.3333H14V17.5H12.8333V18.6667H11.6667V19.8333H10.5V21H7V19.8333H5.83333V18.6667H4.66667V15.1667H5.83333V14H7V12.8333H8.16667V11.6667H9.33333V10.5H10.5V9.33333H11.6667V8.16667H12.8333V7H14V5.83333H15.1667V4.66667H16.3333V5.83333H17.5V7H16.3333V8.16667H15.1667V9.33333H14V10.5H12.8333V11.6667H11.6667V12.8333H10.5V14H9.33333V15.1667H8.16667V16.3333H7V17.5H8.16667V18.6667H9.33333V17.5H10.5V16.3333H11.6667V15.1667H12.8333V14H14V12.8333H15.1667V11.6667H16.3333V10.5H17.5V9.33333H18.6667V8.16667H19.8333V4.66667H18.6667V3.5H17.5V2.33333H14V3.5H12.8333V4.66667H11.6667V5.83333H10.5V7H9.33333V8.16667H8.16667V9.33333H7V10.5H5.83333V11.6667H4.66667V12.8333H3.5V14H2.33333V19.8333H3.5V21H4.66667V22.1667H5.83333V23.3333H11.6667V22.1667H12.8333V21H14V19.8333H15.1667V18.6667H16.3333V17.5H17.5V16.3333H18.6667V15.1667H19.8333V14H22.1667V16.3333H21V17.5H19.8333V18.6667H18.6667V19.8333H17.5V21H16.3333V22.1667H15.1667V23.3333H14V24.5H12.8333V25.6667H5.83333V24.5H3.5V23.3333H2.33333V22.1667H1.16667V19.8333H0V12.8333H1.16667V11.6667H2.33333V10.5H3.5V9.33333H4.66667V8.16667H5.83333V7H7V5.83333H8.16667V4.66667H9.33333V3.5H10.5V2.33333H11.6667V1.16667H14V0H18.6667V1.16667H19.8333V2.33333H21V3.5H22.1667Z" fill="#079918"/>
</svg>
