<svg width="26" height="26" viewBox="0 0 26 26" fill="none" xmlns="http://www.w3.org/2000/svg">
<path d="M9.93739 16.0658C9.53499 15.6634 9.21579 15.1857 8.99802 14.66C8.78024 14.1342 8.66815 13.5707 8.66815 13.0016C8.66815 12.4325 8.78024 11.869 8.99802 11.3433C9.21579 10.8175 9.53499 10.3398 9.93739 9.93742C10.3398 9.53502 10.8175 9.21582 11.3433 8.99804C11.869 8.78027 12.4325 8.66818 13.0016 8.66818C13.5707 8.66818 14.1342 8.78027 14.6599 8.99804C15.1857 9.21582 15.6634 9.53502 16.0658 9.93742" stroke="currentColor" stroke-width="2" stroke-linecap="round" stroke-linejoin="round"/>
<path d="M12.2352 13.7659L12.4237 14.0335C13.4953 15.4824 15.0182 16.534 16.7528 17.0227C18.4875 17.5114 20.3353 17.4096 22.0058 16.7332C21.391 18.2124 20.4212 19.5175 19.1822 20.5328C17.9431 21.5482 16.473 22.2426 14.9017 22.5547C13.3305 22.8668 11.7066 22.7869 10.1735 22.3222C8.6405 21.8574 7.24559 21.0221 6.11217 19.89M3.25 13H4.33333M13 3.25V4.33333M6.06667 6.06667L6.825 6.825M3.25 22.75L22.75 3.25" stroke="currentColor" stroke-width="2" stroke-linecap="round" stroke-linejoin="round"/>
</svg>
